<svg width="800" height="325" viewBox="0 0 800 325" fill="none" xmlns="http://www.w3.org/2000/svg">
<rect width="800" height="325" fill="white"/>
<path d="M466.605 144.31L466.605 144.301L466.461 114.101L466.461 114.096C466.406 107.402 464.082 101.655 459.501 96.9381L459.497 96.9336C455.946 93.3077 450.066 91.6917 442.314 91.6832L382.972 91.6185L383.002 64.3305L465.192 64.4201L466.692 64.4217L466.694 62.9217L466.718 41.2242L466.719 39.7242L465.219 39.7225L378.783 39.6283C372.023 39.6209 366.262 41.9473 361.597 46.6024C356.931 51.2576 354.593 57.0136 354.585 63.7737L354.552 94.0617C354.545 100.67 356.948 106.369 361.711 111.078L361.713 111.081C365.421 114.731 371.205 116.392 378.7 116.4L438.041 116.465L438.014 141.893L356 141.804L354.5 141.802L354.498 143.302L354.473 166.859L354.471 168.359L355.971 168.361L442.407 168.455C449.013 168.462 454.737 166.061 459.502 161.307C464.211 156.669 466.598 151.066 466.605 144.575L466.605 144.31ZM615.343 168.644L616.843 168.645L616.845 167.145L616.868 145.359L616.87 143.859L615.37 143.858L529.726 143.764L529.753 118.425L592.726 118.493C599.382 118.5 605.11 116.134 609.824 111.43C614.538 106.726 616.917 101.004 616.924 94.3478L616.957 64.0598C616.964 57.2997 614.638 51.5386 609.983 46.8733C605.328 42.208 599.572 39.869 592.812 39.8617L515.409 39.7773L513.909 39.7756L513.907 41.2756L513.884 62.9732L513.882 64.4732L515.382 64.4748L591.993 64.5584L591.961 93.7019L532.093 93.4638L532.089 93.4638C525.236 93.4563 519.055 95.7027 513.597 100.159C507.797 104.888 504.798 110.725 504.791 117.606L504.737 167.023L504.735 168.523L506.235 168.525L615.343 168.644ZM651.813 167.184L651.811 168.684L653.311 168.685L739.747 168.779C746.404 168.787 752.131 166.421 756.845 161.717C761.56 157.013 763.938 151.29 763.945 144.634L763.978 114.435C763.979 113.422 763.935 112.537 763.835 111.796C763.738 111.083 763.575 110.383 763.269 109.819L763.161 109.62L762.998 109.462C761.395 107.898 759.924 106.593 758.589 105.561C759.336 104.802 759.97 104.142 760.49 103.584C761.252 102.765 761.834 102.094 762.146 101.626C763.424 99.7135 763.997 97.2994 764 94.5082L764.033 64.2201C764.04 57.4601 761.714 51.699 757.059 47.0337C752.404 42.3683 746.648 40.0294 739.888 40.022L653.452 39.9278L651.952 39.9261L651.95 41.4261L651.926 63.1237L651.925 64.6237L653.425 64.6254L739.069 64.7187L739.039 92.0068L675.181 91.9372L673.681 91.9355L673.679 93.4355L673.656 115.222L673.654 116.722L675.154 116.723L739.012 116.793L738.983 143.992L653.338 143.899L651.838 143.897L651.837 145.397L651.813 167.184Z" fill="white" stroke="white" stroke-width="3"/>
<mask id="path-2-outside-1_6_63" maskUnits="userSpaceOnUse" x="346.592" y="232.352" width="427.065" height="60.4656" fill="black">
<rect fill="white" x="346.592" y="232.352" width="427.065" height="60.4656"/>
<path d="M373.207 280.641L388.947 280.658L388.936 290.561L347.594 290.516L347.604 280.613L363.344 280.63L363.385 243.233L347.645 243.216L347.656 233.354L388.998 233.399L388.987 243.261L373.248 243.244L373.207 280.641Z"/>
<path d="M427.958 290.604L428.007 244.954L410.335 244.935L410.286 290.584L400.383 290.574L400.434 243.716C400.437 240.818 401.433 238.377 403.421 236.393C405.409 234.41 407.852 233.419 410.75 233.422L425.484 233.438C428.355 233.442 430.77 234.424 432.727 236.385C434.768 234.428 437.185 233.451 439.976 233.454L456.199 233.472C459.151 233.475 461.578 234.457 463.482 236.419C465.412 238.38 466.375 240.836 466.372 243.788L466.321 290.645L456.499 290.635L456.548 244.985L437.91 244.965L437.86 290.614L427.958 290.604Z"/>
<path d="M537.477 243.866L537.437 280.418C537.434 283.316 536.439 285.757 534.45 287.741C532.462 289.725 530.019 290.715 527.121 290.712L489.965 290.671C487.147 290.668 484.72 289.659 482.682 287.644C480.672 285.602 479.668 283.173 479.671 280.355L479.711 243.803C479.714 240.905 480.71 238.463 482.698 236.48C484.686 234.496 487.129 233.506 490.028 233.509L527.425 233.55C530.269 233.553 532.657 234.562 534.587 236.577C536.517 238.591 537.48 241.021 537.477 243.866ZM527.534 280.809L527.575 243.412L489.614 243.371L489.573 280.768L527.534 280.809Z"/>
<path d="M581.198 290.771L569.685 290.758L550.707 233.575L560.609 233.586L575.414 278.809L590.318 233.618L600.301 233.629L581.198 290.771Z"/>
<path d="M659.469 290.856L620.18 290.813C617.362 290.81 614.934 289.801 612.897 287.786C610.886 285.744 609.882 283.315 609.886 280.497L609.925 243.945C609.929 241.047 610.924 238.605 612.912 236.622C614.9 234.638 617.344 233.648 620.242 233.651L659.531 233.694L659.52 243.556L619.829 243.513L619.814 257.28L659.505 257.323L659.495 267.226L619.803 267.183L619.788 280.91L659.48 280.953L659.469 290.856Z"/>
<path d="M695.361 280.992L711.101 281.01L711.09 290.912L669.748 290.867L669.759 280.965L685.499 280.982L685.54 243.585L669.8 243.567L669.811 233.705L711.153 233.75L711.142 243.612L695.402 243.595L695.361 280.992Z"/>
<path d="M772.143 280.674L772.143 280.794C772.14 283.559 771.131 285.933 769.116 287.916C767.074 289.954 764.644 290.971 761.827 290.968L722.537 290.925L722.549 280.217L760.51 280.258L760.524 267.336L732.869 267.306C729.541 267.303 727.126 266.562 725.625 265.084C723.588 263.069 722.57 260.653 722.574 257.835L722.589 244.068C722.592 241.169 723.587 238.728 725.575 236.745C727.564 234.761 730.007 233.771 732.905 233.774L772.194 233.817L772.184 243.679L734.142 243.638L734.127 257.405L761.783 257.435C765.245 257.439 767.686 258.166 769.107 259.617C771.064 261.632 772.054 264.075 772.078 266.946L772.143 280.674Z"/>
</mask>
<path d="M373.207 280.641L388.947 280.658L388.936 290.561L347.594 290.516L347.604 280.613L363.344 280.63L363.385 243.233L347.645 243.216L347.656 233.354L388.998 233.399L388.987 243.261L373.248 243.244L373.207 280.641Z" fill="#98999E"/>
<path d="M427.958 290.604L428.007 244.954L410.335 244.935L410.286 290.584L400.383 290.574L400.434 243.716C400.437 240.818 401.433 238.377 403.421 236.393C405.409 234.41 407.852 233.419 410.75 233.422L425.484 233.438C428.355 233.442 430.77 234.424 432.727 236.385C434.768 234.428 437.185 233.451 439.976 233.454L456.199 233.472C459.151 233.475 461.578 234.457 463.482 236.419C465.412 238.38 466.375 240.836 466.372 243.788L466.321 290.645L456.499 290.635L456.548 244.985L437.91 244.965L437.86 290.614L427.958 290.604Z" fill="#98999E"/>
<path d="M537.477 243.866L537.437 280.418C537.434 283.316 536.439 285.757 534.45 287.741C532.462 289.725 530.019 290.715 527.121 290.712L489.965 290.671C487.147 290.668 484.72 289.659 482.682 287.644C480.672 285.602 479.668 283.173 479.671 280.355L479.711 243.803C479.714 240.905 480.71 238.463 482.698 236.48C484.686 234.496 487.129 233.506 490.028 233.509L527.425 233.55C530.269 233.553 532.657 234.562 534.587 236.577C536.517 238.591 537.48 241.021 537.477 243.866ZM527.534 280.809L527.575 243.412L489.614 243.371L489.573 280.768L527.534 280.809Z" fill="#98999E"/>
<path d="M581.198 290.771L569.685 290.758L550.707 233.575L560.609 233.586L575.414 278.809L590.318 233.618L600.301 233.629L581.198 290.771Z" fill="#98999E"/>
<path d="M659.469 290.856L620.18 290.813C617.362 290.81 614.934 289.801 612.897 287.786C610.886 285.744 609.882 283.315 609.886 280.497L609.925 243.945C609.929 241.047 610.924 238.605 612.912 236.622C614.9 234.638 617.344 233.648 620.242 233.651L659.531 233.694L659.52 243.556L619.829 243.513L619.814 257.28L659.505 257.323L659.495 267.226L619.803 267.183L619.788 280.91L659.48 280.953L659.469 290.856Z" fill="#98999E"/>
<path d="M695.361 280.992L711.101 281.01L711.09 290.912L669.748 290.867L669.759 280.965L685.499 280.982L685.54 243.585L669.8 243.567L669.811 233.705L711.153 233.75L711.142 243.612L695.402 243.595L695.361 280.992Z" fill="#98999E"/>
<path d="M772.143 280.674L772.143 280.794C772.14 283.559 771.131 285.933 769.116 287.916C767.074 289.954 764.644 290.971 761.827 290.968L722.537 290.925L722.549 280.217L760.51 280.258L760.524 267.336L732.869 267.306C729.541 267.303 727.126 266.562 725.625 265.084C723.588 263.069 722.57 260.653 722.574 257.835L722.589 244.068C722.592 241.169 723.587 238.728 725.575 236.745C727.564 234.761 730.007 233.771 732.905 233.774L772.194 233.817L772.184 243.679L734.142 243.638L734.127 257.405L761.783 257.435C765.245 257.439 767.686 258.166 769.107 259.617C771.064 261.632 772.054 264.075 772.078 266.946L772.143 280.674Z" fill="#98999E"/>
<path d="M373.207 280.641L388.947 280.658L388.936 290.561L347.594 290.516L347.604 280.613L363.344 280.63L363.385 243.233L347.645 243.216L347.656 233.354L388.998 233.399L388.987 243.261L373.248 243.244L373.207 280.641Z" stroke="#98999E" stroke-width="2" mask="url(#path-2-outside-1_6_63)"/>
<path d="M427.958 290.604L428.007 244.954L410.335 244.935L410.286 290.584L400.383 290.574L400.434 243.716C400.437 240.818 401.433 238.377 403.421 236.393C405.409 234.41 407.852 233.419 410.75 233.422L425.484 233.438C428.355 233.442 430.77 234.424 432.727 236.385C434.768 234.428 437.185 233.451 439.976 233.454L456.199 233.472C459.151 233.475 461.578 234.457 463.482 236.419C465.412 238.38 466.375 240.836 466.372 243.788L466.321 290.645L456.499 290.635L456.548 244.985L437.91 244.965L437.86 290.614L427.958 290.604Z" stroke="#98999E" stroke-width="2" mask="url(#path-2-outside-1_6_63)"/>
<path d="M537.477 243.866L537.437 280.418C537.434 283.316 536.439 285.757 534.45 287.741C532.462 289.725 530.019 290.715 527.121 290.712L489.965 290.671C487.147 290.668 484.72 289.659 482.682 287.644C480.672 285.602 479.668 283.173 479.671 280.355L479.711 243.803C479.714 240.905 480.71 238.463 482.698 236.48C484.686 234.496 487.129 233.506 490.028 233.509L527.425 233.55C530.269 233.553 532.657 234.562 534.587 236.577C536.517 238.591 537.48 241.021 537.477 243.866ZM527.534 280.809L527.575 243.412L489.614 243.371L489.573 280.768L527.534 280.809Z" stroke="#98999E" stroke-width="2" mask="url(#path-2-outside-1_6_63)"/>
<path d="M581.198 290.771L569.685 290.758L550.707 233.575L560.609 233.586L575.414 278.809L590.318 233.618L600.301 233.629L581.198 290.771Z" stroke="#98999E" stroke-width="2" mask="url(#path-2-outside-1_6_63)"/>
<path d="M659.469 290.856L620.18 290.813C617.362 290.81 614.934 289.801 612.897 287.786C610.886 285.744 609.882 283.315 609.886 280.497L609.925 243.945C609.929 241.047 610.924 238.605 612.912 236.622C614.9 234.638 617.344 233.648 620.242 233.651L659.531 233.694L659.52 243.556L619.829 243.513L619.814 257.28L659.505 257.323L659.495 267.226L619.803 267.183L619.788 280.91L659.48 280.953L659.469 290.856Z" stroke="#98999E" stroke-width="2" mask="url(#path-2-outside-1_6_63)"/>
<path d="M695.361 280.992L711.101 281.01L711.09 290.912L669.748 290.867L669.759 280.965L685.499 280.982L685.54 243.585L669.8 243.567L669.811 233.705L711.153 233.75L711.142 243.612L695.402 243.595L695.361 280.992Z" stroke="#98999E" stroke-width="2" mask="url(#path-2-outside-1_6_63)"/>
<path d="M772.143 280.674L772.143 280.794C772.14 283.559 771.131 285.933 769.116 287.916C767.074 289.954 764.644 290.971 761.827 290.968L722.537 290.925L722.549 280.217L760.51 280.258L760.524 267.336L732.869 267.306C729.541 267.303 727.126 266.562 725.625 265.084C723.588 263.069 722.57 260.653 722.574 257.835L722.589 244.068C722.592 241.169 723.587 238.728 725.575 236.745C727.564 234.761 730.007 233.771 732.905 233.774L772.194 233.817L772.184 243.679L734.142 243.638L734.127 257.405L761.783 257.435C765.245 257.439 767.686 258.166 769.107 259.617C771.064 261.632 772.054 264.075 772.078 266.946L772.143 280.674Z" stroke="#98999E" stroke-width="2" mask="url(#path-2-outside-1_6_63)"/>
<path d="M512.558 218.558L524.924 218.572L519.765 224.749L514.605 230.927L502.239 230.914L512.558 218.558Z" fill="#98999E"/>
<rect x="345.636" y="195.705" width="430.764" height="8.24428" transform="rotate(0.0624776 345.636 195.705)" fill="white"/>
<circle cx="168.422" cy="160.473" r="144.024" transform="rotate(0.0624776 168.422 160.473)" fill="#D9D9D9" stroke="#606060" stroke-width="0.5"/>
<circle cx="168.422" cy="160.473" r="114.05" transform="rotate(0.0624776 168.422 160.473)" fill="#2D3192" stroke="black" stroke-width="2"/>
<path d="M107.111 131.887L170.569 83.3052L232.279 128.668L232.18 219.259L107.016 219.122L107.111 131.887Z" fill="#249FDA"/>
<path d="M170.569 83.3052L107.111 131.887L107.016 219.122L232.18 219.259L232.279 128.668L170.569 83.3052ZM170.569 83.3052L86.2326 147.959M170.569 83.3052L252.322 142.95" stroke="white" stroke-width="5"/>
<path d="M186.9 138.684C186.89 147.949 179.37 155.452 170.105 155.442C160.84 155.432 153.337 147.913 153.347 138.648C153.358 129.383 160.877 121.88 170.142 121.89C179.407 121.9 186.91 129.419 186.9 138.684Z" fill="white"/>
<path d="M162.569 143.691L176.821 150.193L185.163 192.366L154.967 192.333L162.569 143.691Z" fill="white"/>
</svg>
